<?xml version="1.0" standalone="no"?>
<!DOCTYPE svg PUBLIC "-//W3C//DTD SVG 20010904//EN"
 "http://www.w3.org/TR/2001/REC-SVG-20010904/DTD/svg10.dtd">
<svg version="1.0" xmlns="http://www.w3.org/2000/svg"
 width="120.000000pt" height="120.000000pt" viewBox="0 0 120.000000 120.000000"
 preserveAspectRatio="xMidYMid meet">
<metadata>
Created by potrace 1.14, written by Peter Selinger 2001-2017
</metadata>
<g transform="translate(0.000000,120.000000) scale(0.100000,-0.100000)"
fill="#000000" stroke="none">
<path d="M707 1186 c-3 -7 19 -38 49 -71 32 -33 69 -88 90 -131 26 -54 41 -74
55 -74 18 0 18 1 -1 50 -36 90 -97 174 -161 221 -21 15 -28 16 -32 5z"/>
<path d="M437 1113 c-39 -44 -24 -83 90 -232 53 -69 99 -128 103 -131 9 -6 30
-46 30 -56 0 -8 -58 52 -110 112 -70 82 -137 161 -155 183 -48 59 -78 81 -109
81 -39 0 -52 -9 -65 -42 -13 -34 4 -79 48 -126 17 -18 31 -35 31 -38 0 -2 13
-16 28 -31 16 -16 60 -64 97 -108 38 -44 84 -96 102 -115 18 -19 33 -38 33
-42 0 -20 -22 -2 -90 70 -151 160 -196 204 -222 218 -34 18 -32 18 -68 -1 -26
-13 -30 -21 -30 -55 0 -45 13 -61 225 -278 140 -144 159 -179 36 -67 -24 22
-51 47 -59 55 -47 46 -87 70 -117 70 -43 0 -69 -29 -60 -68 8 -37 43 -74 225
-237 166 -149 252 -217 296 -234 32 -13 122 -17 161 -7 25 5 109 53 133 74
113 101 154 171 154 266 0 67 -9 165 -22 236 -13 69 -6 112 33 207 l36 86 -21
21 c-15 15 -32 21 -64 20 -77 -2 -135 -60 -142 -142 -7 -89 -36 -122 -89 -102
-18 7 -96 91 -143 155 -4 6 -42 58 -85 117 -42 58 -91 118 -108 132 -35 30
-79 34 -102 9z"/>
<path d="M650 1105 c-7 -8 -8 -15 -2 -15 29 0 132 -146 132 -188 0 -14 26 -16
35 -3 9 16 -43 114 -83 158 -55 59 -67 66 -82 48z"/>
<path d="M105 450 c-8 -12 21 -64 60 -109 35 -39 114 -93 126 -85 17 10 9 21
-32 49 -48 31 -80 66 -106 112 -18 35 -39 48 -48 33z"/>
<path d="M8 414 c-8 -7 62 -111 103 -153 33 -33 115 -91 130 -91 4 0 9 6 12
14 3 9 -13 25 -43 45 -50 33 -125 114 -150 164 -12 25 -38 35 -52 21z"/>
</g>
</svg>
